<svg xmlns="http://www.w3.org/2000/svg" width="143" height="145" fill="none" viewBox="0 0 143 145">
  <path fill="#F80000" d="M58.5 41.75c0-6.305-9.124-7.976-11.545-2.077-5.855 14.27-10.122 27.034-10.122 33.935 0 21.994 19.401 39.824 43.334 39.824 23.932 0 43.333-17.83 43.333-39.824 0-7.414-4.925-21.597-11.454-37.141C103.589 16.33 99.36 6.262 94.14 5.72c-1.67-.174-3.492.138-4.983.853C84.5 8.806 84.5 19.787 84.5 41.75c0 6.598-5.82 11.947-13 11.947s-13-5.349-13-11.947Z"/>
  <path stroke="#B4B4B4" stroke-width="10" d="M58.5 41.75c0-6.305-9.124-7.976-11.545-2.077-5.855 14.27-10.122 27.034-10.122 33.935 0 21.994 19.401 39.824 43.334 39.824 23.932 0 43.333-17.83 43.333-39.824 0-7.414-4.925-21.597-11.454-37.141C103.589 16.33 99.36 6.262 94.14 5.72c-1.67-.174-3.492.138-4.983.853C84.5 8.806 84.5 19.787 84.5 41.75c0 6.598-5.82 11.947-13 11.947s-13-5.349-13-11.947Z"/>
  <path fill="#002E9F" stroke="#002E9F" stroke-width="2" d="M3.806 85.32 1.89 80.894c-.356-.823.79-1.447 1.287-.7a66.24 66.24 0 0 0 37.755 27.149l4.888 1.326a.886.886 0 0 1 .382 1.494l-1.171 1.125-.219.208a10 10 0 0 1-9.848 2.22l-.286-.094c-.547-.183-.82-.274-1.082-.364a50 50 0 0 1-29.333-26.89 83.604 83.604 0 0 1-.456-1.045v-.001Z"/>
  <path fill="red" stroke="red" d="m84.53 127.854 4.238-.783A96.816 96.816 0 0 0 124 113l-8.812 2.819a100.063 100.063 0 0 1-15.072 3.562L76.9 122.998a99.993 99.993 0 0 1-40.05-1.895L5 113l25.269 9.779a100.015 100.015 0 0 0 54.262 5.075Z"/>
  <path fill="#01A425" stroke="#01A425" d="m85.262 134.403.4-.118-15.33.791a130.028 130.028 0 0 1-29-1.752l-14.677-2.556c18.479 8.05 39.225 9.336 58.607 3.635Z"/>
</svg>
